<svg width="73" height="72" viewBox="0 0 73 72" fill="none" xmlns="http://www.w3.org/2000/svg">
<rect x="0.5" width="72" height="72" rx="36" fill="white"/>
<g clip-path="url(#clip0)">
<path d="M31.0422 42.6624C30.5015 42.1193 30.7833 42.2724 29.4791 41.9218C28.8874 41.7624 28.3672 41.4562 27.8968 41.0893L25.0738 48.0418C24.8007 48.7149 25.3109 49.4462 26.0339 49.4187L29.3124 49.2931L31.5673 51.6856C32.0651 52.2131 32.9387 52.0487 33.2119 51.3756L36.4505 43.3993C35.776 43.7768 35.0275 43.9981 34.2535 43.9981C33.0401 43.9981 31.9002 43.5237 31.0422 42.6624ZM48.8178 48.0418L45.9948 41.0893C45.5244 41.4568 45.0042 41.7624 44.4125 41.9218C43.1015 42.2743 43.3889 42.1206 42.8495 42.6624C41.9914 43.5237 40.8509 43.9981 39.6375 43.9981C38.8635 43.9981 38.115 43.7762 37.4405 43.3993L40.6791 51.3756C40.9523 52.0487 41.8265 52.2131 42.3237 51.6856L44.5792 49.2931L47.8577 49.4187C48.5808 49.4462 49.091 48.7143 48.8178 48.0418ZM41.3636 41.2481C42.3144 40.2762 42.4232 40.3599 43.7772 39.9893C44.6415 39.7524 45.3172 39.0618 45.5487 38.1781C46.0141 36.4031 45.8934 36.6174 47.1633 35.3187C47.7961 34.6718 48.0432 33.7287 47.8117 32.8449C47.3469 31.0712 47.3463 31.3187 47.8117 29.5431C48.0432 28.6593 47.7961 27.7162 47.1633 27.0693C45.8934 25.7706 46.0141 25.9843 45.5487 24.2099C45.3172 23.3262 44.6415 22.6356 43.7772 22.3987C42.0424 21.9231 42.2515 22.0474 40.9803 20.7481C40.3475 20.1012 39.4247 19.8481 38.5605 20.0849C36.8263 20.5599 37.0684 20.5606 35.3311 20.0849C34.4669 19.8481 33.5441 20.1006 32.9113 20.7481C31.6414 22.0468 31.8504 21.9231 30.1151 22.3987C29.2508 22.6356 28.5751 23.3262 28.3436 24.2099C27.8788 25.9843 27.9989 25.7706 26.7289 27.0693C26.0961 27.7162 25.8485 28.6593 26.0806 29.5431C26.5454 31.3156 26.546 31.0681 26.0806 32.8443C25.8491 33.7281 26.0961 34.6712 26.7289 35.3187C27.9989 36.6174 27.8782 36.4031 28.3436 38.1781C28.5751 39.0618 29.2508 39.7524 30.1151 39.9893C31.5076 40.3706 31.6115 40.3106 32.528 41.2481C33.3512 42.0899 34.6336 42.2406 35.623 41.6118C36.0186 41.3595 36.4775 41.2256 36.9461 41.2256C37.4147 41.2256 37.8737 41.3595 38.2693 41.6118C39.258 42.2406 40.5404 42.0899 41.3636 41.2481ZM31.0758 30.9956C31.0758 27.6812 33.704 24.9943 36.9458 24.9943C40.1876 24.9943 42.8159 27.6812 42.8159 30.9956C42.8159 34.3099 40.1876 36.9968 36.9458 36.9968C33.704 36.9968 31.0758 34.3099 31.0758 30.9956Z" fill="#FFA62B"/>
</g>
<rect x="2" y="1.5" width="69" height="69" rx="34.5" stroke="#A9D6FF" stroke-opacity="0.56" stroke-width="3"/>
<defs>
<clipPath id="clip0">
<rect width="23.8933" height="32" fill="white" transform="translate(25 20)"/>
</clipPath>
</defs>
</svg>
